<svg width="10" height="18" viewBox="0 0 10 18" fill="none" xmlns="http://www.w3.org/2000/svg">
<path opacity="0.3" d="M7.05881 0.17627H3.5294V1.94098H1.7647C1.11495 1.94098 0.588226 2.53354 0.588226 3.2645V16.4998C0.588226 17.2308 1.11495 17.8233 1.7647 17.8233H8.82352C9.47327 17.8233 9.99999 17.2308 9.99999 16.4998V3.2645C9.99999 2.53354 9.47327 1.94098 8.82352 1.94098H7.05881V0.17627Z" fill="#003F5F"/>
<path d="M0.588234 9.58789C0.588225 10.2742 0.588226 15.9016 0.588226 16.5879C0.588226 17.2701 1.11495 17.8232 1.7647 17.8232H8.82352C9.47327 17.8232 9.99999 17.2701 9.99999 16.5879C9.99999 15.9016 9.99999 10.2742 9.99999 9.58789H0.588234Z" fill="#003F5F"/>
</svg>
