<svg width="59" height="60" viewBox="0 0 59 60" fill="none" xmlns="http://www.w3.org/2000/svg">
<path fill-rule="evenodd" clip-rule="evenodd" d="M36.8125 21.5857H35.7607V19.4822H33.6572V21.5857H25.2429V19.4822H23.1393V21.5857H22.0875C20.92 21.5857 19.9839 22.5324 19.9839 23.6893V38.4143C19.9839 39.5713 20.92 40.5179 22.0875 40.5179H36.8125C37.9695 40.5179 38.9161 39.5713 38.9161 38.4143V23.6893C38.9161 22.5324 37.9695 21.5857 36.8125 21.5857ZM36.8125 38.4143H22.0875V26.8447H36.8125V38.4143ZM23.6652 31.0518C23.6652 29.6004 24.8432 28.4224 26.2947 28.4224C27.7461 28.4224 28.9241 29.6004 28.9241 31.0518C28.9241 32.5033 27.7461 33.6813 26.2947 33.6813C24.8432 33.6813 23.6652 32.5033 23.6652 31.0518Z" fill="#003F5F"/>
</svg>
