<svg width="60" height="62" viewBox="0 0 60 62" fill="none" xmlns="http://www.w3.org/2000/svg">
<rect y="2" width="60" height="60" rx="14" fill="#0099FF"/>
<g clip-path="url(#clip0_2_3009)">
<path d="M30 44.5C31.7246 44.5 33.1235 43.1011 33.1235 41.375H26.8765C26.8765 43.1011 28.2754 44.5 30 44.5ZM40.5171 37.1899C39.5737 36.1763 37.8086 34.6514 37.8086 29.6562C37.8086 25.8623 35.1484 22.8252 31.5615 22.0801V21.0625C31.5615 20.1997 30.8623 19.5 30 19.5C29.1377 19.5 28.4385 20.1997 28.4385 21.0625V22.0801C24.8516 22.8252 22.1914 25.8623 22.1914 29.6562C22.1914 34.6514 20.4263 36.1763 19.4829 37.1899C19.1899 37.5049 19.0601 37.8813 19.0625 38.25C19.0679 39.0508 19.6963 39.8125 20.6299 39.8125H39.3701C40.3037 39.8125 40.9326 39.0508 40.9375 38.25C40.9399 37.8813 40.8101 37.5044 40.5171 37.1899Z" fill="white"/>
</g>
<rect x="44" width="15" height="15" rx="7.5" fill="#DE3730"/>
<defs>
<clipPath id="clip0_2_3009">
<rect width="25" height="25" fill="white" transform="translate(17.5 19.5)"/>
</clipPath>
</defs>
</svg>
