<svg width="59" height="60" viewBox="0 0 59 60" fill="none" xmlns="http://www.w3.org/2000/svg">
<path fill-rule="evenodd" clip-rule="evenodd" d="M29.5497 21.5867C27.2256 21.5867 25.3431 23.4692 25.3431 25.7933C25.3431 28.1175 27.2256 30 29.5497 30C31.8739 30 33.7564 28.1175 33.7564 25.7933C33.7564 23.4692 31.8739 21.5867 29.5497 21.5867ZM31.6533 25.7933C31.6533 24.6365 30.7068 23.69 29.55 23.69C28.3931 23.69 27.4466 24.6365 27.4466 25.7933C27.4466 26.9502 28.3931 27.8967 29.55 27.8967C30.7068 27.8967 31.6533 26.9502 31.6533 25.7933ZM35.8601 35.2583C35.6498 34.5117 32.3896 33.155 29.5501 33.155C26.7106 33.155 23.4504 34.5117 23.2401 35.2689V36.31H35.8601V35.2583ZM21.1365 35.2583C21.1365 32.4609 26.7419 31.0517 29.5499 31.0517C32.3578 31.0517 37.9632 32.4609 37.9632 35.2583V38.4133H21.1365V35.2583Z" fill="#003F5F"/>
<circle cx="29.55" cy="25.8623" r="4.34459" fill="white"/>
<g clip-path="url(#clip0_2_860)">
<path d="M29.55 21.6534C27.2257 21.6534 25.3412 23.5386 25.3412 25.8623C25.3412 28.1872 27.2257 30.0711 29.55 30.0711C31.8743 30.0711 33.7588 28.1872 33.7588 25.8623C33.7588 23.5386 31.8743 21.6534 29.55 21.6534ZM29.55 23.5203C29.9437 23.5203 30.2628 23.8394 30.2628 24.233C30.2628 24.6267 29.9437 24.9458 29.55 24.9458C29.1563 24.9458 28.8372 24.6267 28.8372 24.233C28.8372 23.8394 29.1563 23.5203 29.55 23.5203ZM30.5004 27.8309C30.5004 27.9434 30.4092 28.0346 30.2967 28.0346H28.8033C28.6908 28.0346 28.5996 27.9434 28.5996 27.8309V27.4236C28.5996 27.3111 28.6908 27.2199 28.8033 27.2199H29.0069V26.1338H28.8033C28.6908 26.1338 28.5996 26.0426 28.5996 25.9301V25.5228C28.5996 25.4104 28.6908 25.3192 28.8033 25.3192H29.8894C30.0019 25.3192 30.0931 25.4104 30.0931 25.5228V27.2199H30.2967C30.4092 27.2199 30.5004 27.3111 30.5004 27.4236V27.8309Z" fill="#003F5F"/>
</g>
<defs>
<clipPath id="clip0_2_860">
<rect width="8.68918" height="8.68918" fill="white" transform="translate(25.2054 21.5177)"/>
</clipPath>
</defs>
</svg>
