<svg width="12" height="12" viewBox="0 0 12 12" fill="none" xmlns="http://www.w3.org/2000/svg">
<path d="M6 12C6.82781 12 7.4993 11.3285 7.4993 10.5H4.5007C4.5007 11.3285 5.17219 12 6 12ZM11.0482 8.49117C10.5954 8.00461 9.74813 7.27266 9.74813 4.875C9.74813 3.05391 8.47125 1.59609 6.74953 1.23844V0.75C6.74953 0.335859 6.41391 0 6 0C5.58609 0 5.25047 0.335859 5.25047 0.75V1.23844C3.52875 1.59609 2.25188 3.05391 2.25188 4.875C2.25188 7.27266 1.40461 8.00461 0.951798 8.49117C0.811173 8.64234 0.748829 8.82305 0.750001 9C0.752579 9.38437 1.05422 9.75 1.50234 9.75H10.4977C10.9458 9.75 11.2477 9.38437 11.25 9C11.2512 8.82305 11.1888 8.64211 11.0482 8.49117Z" fill="#003F5F"/>
</svg>
